<svg xmlns="http://www.w3.org/2000/svg" viewBox="0 0 24 24" width="24" height="24" fill="currentColor">
  <!-- Rose / flower -->
  <path d="M12 2C10.9 4.2 10 5.5 10 7.5c0 1.1.9 2 2 2s2-.9 2-2c0-2-0.9-3.3-2-5.5z"/>
  <path d="M7.5 6C5.3 7.1 4 8 4 10c0 1.1.9 2 2 2 1.1 0 2-.9 2-2 0-2-0.3-2.9-0.5-4z"/>
  <path d="M16.5 6c2.2 1.1 3.5 2 3.5 4 0 1.1-.9 2-2 2s-2-.9-2-2c0-2 .3-2.9.5-4z"/>
  <path d="M12 10c-2.2 0-4 1.8-4 4s1.8 4 4 4 4-1.8 4-4-1.8-4-4-4zm0 6c-1.1 0-2-.9-2-2s.9-2 2-2 2 .9 2 2-.9 2-2 2z"/>
  <!-- Stem -->
  <path d="M12 18v4" fill="none" stroke="currentColor" stroke-width="1.5" stroke-linecap="round"/>
</svg>
