<svg xmlns="http://www.w3.org/2000/svg" viewBox="0 0 24 24" width="24" height="24" fill="currentColor">
  <!-- Snowflake: 3 main lines with branches -->
  <path d="M12 2v20M4.93 6.93l14.14 14.14M19.07 6.93L4.93 21.07"
        fill="none" stroke="currentColor" stroke-width="1.5" stroke-linecap="round"/>
  <!-- Branch details -->
  <path d="M12 2l-2 2M12 2l2 2M12 22l-2-2M12 22l2-2M4.93 6.93l.7 2.7M4.93 6.93l2.7.7M19.07 6.93l-.7 2.7M19.07 6.93l-2.7.7M4.93 21.07l2.7-.7M4.93 21.07l.7-2.7M19.07 21.07l-2.7-.7M19.07 21.07l-.7-2.7"
        fill="none" stroke="currentColor" stroke-width="1" stroke-linecap="round"/>
</svg>
