<svg xmlns="http://www.w3.org/2000/svg" viewBox="0 0 256 256" role="img" aria-label="Leaf gear logo">
  <defs>
    <linearGradient id="bg" x1="0%" y1="0%" x2="100%" y2="100%">
      <stop offset="0%" stop-color="#1f8c8b" />
      <stop offset="100%" stop-color="#7bd68b" />
    </linearGradient>
    <linearGradient id="leaf" x1="30%" y1="10%" x2="90%" y2="90%">
      <stop offset="0%" stop-color="#9ef38b" />
      <stop offset="100%" stop-color="#39a551" />
    </linearGradient>
  </defs>
  <rect x="16" y="16" width="224" height="224" rx="56" fill="url(#bg)" />
  <g fill="#f1f5f9">
    <rect x="118" y="34" width="20" height="44" rx="6" />
    <rect x="118" y="178" width="20" height="44" rx="6" />
    <rect x="34" y="118" width="44" height="20" rx="6" />
    <rect x="178" y="118" width="44" height="20" rx="6" />
    <rect x="180" y="55" width="20" height="44" rx="6" transform="rotate(45 190 77)" />
    <rect x="56" y="55" width="20" height="44" rx="6" transform="rotate(-45 66 77)" />
    <rect x="56" y="157" width="20" height="44" rx="6" transform="rotate(45 66 179)" />
    <rect x="180" y="157" width="20" height="44" rx="6" transform="rotate(-45 190 179)" />
    <circle cx="128" cy="128" r="64" />
    <circle cx="128" cy="128" r="30" fill="#1f2a37" />
  </g>
  <path
    fill="url(#leaf)"
    d="M181 66c-34.6 9.5-71.8 35.4-92.4 75.2 21.5-10.4 42.7-14.3 58.7-13.3-9.4 18.9-27.7 34.1-52.4 46.7 37.9 0.6 71.1-19 88.6-59.2 9.6-22.1 10.2-43.4-2.5-49.4z"
  />
  <path
    fill="#ffffff"
    fill-opacity="0.65"
    d="M173 82c-14.2 8.5-29.2 22.8-38.6 40.3 11.3-4.6 22.5-6.8 31-6.4-4.6 10-12.4 18.9-23.4 26.2 20.5-3.4 36.8-16.5 45.1-37.2 4.1-10.7 1.8-21.2-14.1-22.9z"
  />
</svg>
